<?xml version="1.0" encoding="utf-8"?>
<!-- Generator: Adobe Illustrator 19.0.0, SVG Export Plug-In . SVG Version: 6.00 Build 0)  -->
<svg version="1.1" id="Ebene_1" xmlns="http://www.w3.org/2000/svg" xmlns:xlink="http://www.w3.org/1999/xlink" x="0px" y="0px"
	 viewBox="0 0 1621.2 877.7" style="enable-background:new 0 0 1621.2 877.7;" xml:space="preserve">
<style type="text/css">
	.st0{fill:#CF1820;}
	.st1{fill:#EC6525;}
	.st2{fill:#AF368C;}
	.st3{fill:none;}
</style>
<g id="XMLID_27_">
	<path id="XMLID_264_" d="M183.1,664.9c15,0,29.6,0,44.7,0c0,27.1,0,54,0,81.4c22.7,0,44.9,0,67.7,0c0-26.8,0-53.9,0-81.2
		c15.3,0,30,0,45.1,0c0,69.7,0,139.4,0,209.4c-14.9,0-29.6,0-44.8,0c0-29.1,0-58.1,0-87.3c-22.7,0-44.9,0-67.6,0c0,29,0,57.9,0,87.2
		c-15.2,0-30,0-45.1,0C183.1,804.7,183.1,735,183.1,664.9z"/>
	<path id="XMLID_263_" d="M458.9,874.4c0-69.9,0-139.4,0-209.4c14.8,0,29.5,0,44.8,0c0,30.7,0,61.4,0,93.6c1.3-1.8,1.8-2.3,2.2-3
		c17.3-29.4,34.5-58.9,51.8-88.2c0.8-1.3,2.7-2.6,4.1-2.6c17-0.2,34-0.1,51.9-0.1c-1.3,2-2.2,3.5-3.2,4.9
		c-18.8,26.9-37.6,53.8-56.5,80.6c-2.3,3.3-2.6,5.6-0.6,9.2c20.4,36.8,40.6,73.8,60.8,110.7c0.7,1.3,1.3,2.6,2.3,4.6
		c-8.7,0-16.8,0-24.9,0c-7.5,0-15-0.2-22.5,0.1c-3.3,0.1-5-0.9-6.5-3.9c-13.6-27-27.4-54-41.1-81c-0.7-1.3-1.4-2.6-2.4-4.4
		c-5,6.7-9.8,13-14.4,19.5c-0.9,1.3-0.9,3.5-0.9,5.3c-0.1,19.5,0,39,0,58.5c0,1.8,0,3.6,0,5.6C488.7,874.4,474.1,874.4,458.9,874.4z
		"/>
	<path id="XMLID_260_" class="st0" d="M1239.7,198.8c-0.6,0.4-1.1,0.5-1.3,0.9c-15.4,24.6-58.7,26.6-80.6-1.9
		c-9.1-11.8-14.1-25.3-15.5-39.9c-2.2-22.6,0.1-44.6,12.9-64.2c11.6-17.7,28-27.7,49.6-27.8c15.3-0.1,27.7,6,36.6,18.7
		c0.6,0.9,1.3,1.8,2.7,3.7c0.7-7,1.3-13,1.9-19.2c10.6,0,20.8,0,30.7,0c0,7.1,0,14,0,21c0,36.1,0.2,72.3-0.2,108.4
		c-0.1,11.4-1.1,23-3.2,34.2c-5.1,27-21.5,43.5-48.5,49.3c-22.7,4.8-44.9,3.2-66.6-5.5c-3.5-1.4-4.9-2.9-3.6-7
		c2.5-7.5,4.3-15.3,6.3-22.4c9.3,2.7,18.3,6.2,27.6,7.9c7.1,1.3,14.7,1.3,21.8,0.2c17.2-2.9,27.9-16.1,29.3-34.9
		C1240.1,213.2,1239.7,206.1,1239.7,198.8z M1240.3,142.2c-0.2,0-0.4,0-0.5,0c0-6.3,0.2-12.7,0-19c-0.5-13.3-9.7-24.9-21.9-27.9
		c-12.1-3-24.7,2.1-31.2,14.2c-11.5,21.3-11.7,43.4-1.4,65.1c5.7,12,17.8,17.8,30.1,16c11.8-1.7,21.3-11,23.4-24.1
		C1239.9,158.5,1239.8,150.3,1240.3,142.2z"/>
	<path id="XMLID_257_" class="st1" d="M3,531.3c3.4-11.6,6.6-22.5,9.8-33.5c16.7-57,33.4-114,49.9-171.1c1.1-3.6,2.4-5,6.3-4.9
		c12,0.3,24,0.2,36,0c3.1,0,4.6,0.8,5.5,4c19.4,67.4,39,134.8,58.6,202.2c0.2,0.8,0.2,1.6,0.4,3.2c-7.8,0-15.4,0.1-22.9,0
		c-4.8-0.1-10.8,1.3-14-1c-3-2.2-3.2-8.4-4.5-12.8c-3.8-13.2-7.6-26.5-11.2-39.8c-0.9-3.2-2.2-4.5-5.8-4.5
		c-17.2,0.2-34.3,0.2-51.5,0c-3.3,0-4.5,1.2-5.4,4.3c-4.4,16.7-9.1,33.3-13.8,49.9c-0.4,1.5-2.2,3.7-3.4,3.7
		C26,531.5,14.9,531.3,3,531.3z M109.6,445.7c-8.2-31.2-16.2-61.8-24.2-92.2c-7.9,30.7-15.8,61.3-23.8,92.2
		C77.9,445.7,93.6,445.7,109.6,445.7z"/>
	<path id="XMLID_256_" d="M1039.6,874.5c-15.1,0-29.7,0-45,0c0-1.9,0-3.7,0-5.5c0-27.2,0.1-54.3-0.1-81.5c0-5.1-0.8-10.3-2-15.3
		c-2.1-8.4-7.4-14.2-16.4-15.3c-8.9-1.2-16.5,2.1-20.9,9.8c-2.9,5-5.1,11.1-5.2,16.8c-0.5,28.3-0.3,56.7-0.3,85c0,1.8,0,3.6,0,5.8
		c-15,0-29.7,0-45.5,0c0-50.2,0-100.6,0-151.3c12,0,24.8,0,38,0c0.7,6.3,1.5,12.7,2.1,17.9c3.3-2.7,6.9-5.7,10.5-8.8
		c21-18.2,55.6-16.3,72,4c8.8,10.9,12.7,24,12.9,37.6c0.6,32.8,0.3,65.7,0.3,98.5C1039.9,872.8,1039.7,873.4,1039.6,874.5z"/>
	<path id="XMLID_255_" class="st0" d="M421,219.2c0-73.1,0-145.9,0-219.1c12,0,23.9,0,36.5,0c0,28.8,0,57.8,0,88.2
		c2-2.3,3.1-3.4,4.1-4.6c13.4-16.1,35.6-22.2,55.1-14.9c16.8,6.3,24.8,19.9,28.7,36.3c1.4,6.1,2.2,12.5,2.3,18.8
		c0.2,30.5,0.1,61,0.1,91.5c0,1.2-0.1,2.3-0.2,3.8c-11.8,0-23.5,0-35.9,0c0-2,0-3.9,0-5.9c0-27.3,0.1-54.7-0.1-82
		c0-5.4-0.7-11-2.1-16.3c-2.5-9.8-8.2-17.1-18.9-18.9c-10.4-1.8-19.1,1.6-25.8,9.7c-4.7,5.7-7.2,12.2-7.2,19.7c0.1,29.3,0,58.6,0,88
		c0,1.8,0,3.6,0,5.7C445.3,219.2,433.4,219.2,421,219.2z"/>
	<path id="XMLID_252_" d="M777.1,797.8c-0.2,12.6-2,24.9-6.7,36.6c-13.4,33.5-45.4,45.5-74.4,42.9c-24.5-2.2-43.7-13.4-55.6-35.4
		c-16-29.7-13.2-79.5,14.1-103.8c16.6-14.7,36.2-19.9,57.8-18.1c39.1,3.1,60.1,32.2,63.6,64.4C776.4,788.8,776.7,793.3,777.1,797.8z
		 M730.7,795.4c-0.3-9.7-1.6-22.2-9-33.2c-4.1-6-9.6-9.5-17.1-9.5c-10.7,0-17.2,6.1-21.6,15c-4.5,9.2-5.7,19.1-5.9,29.1
		c-0.2,11.8,1.1,23.6,6.8,34.3c3.1,5.8,7.3,10.3,13.7,12.4c11.2,3.7,21.3-1.6,27.2-14.1C729.4,819.6,730.7,809.1,730.7,795.4z"/>
	<path id="XMLID_251_" d="M51.9,703.9c-17.3,0-33.7,0-50.5,0c0-13.2,0-25.9,0-39c48.9,0,97.8,0,147,0c0,12.7,0,25.5,0,38.8
		c-16.7,0-33.5,0-50.9,0c0,57.2,0,113.9,0,170.7c-15.5,0-30.3,0-45.6,0C51.9,817.8,51.9,761.3,51.9,703.9z"/>
	<path id="XMLID_250_" class="st2" d="M691.1,356.4c-8.8-2.4-16.8-5.5-25-6.6c-12.2-1.5-24.7-2.5-35.6,5.6
		c-12.1,9-14.1,26.5-3.1,36.7c6.6,6.1,15,10.3,22.8,14.9c11.4,6.7,23.7,12.2,34.6,19.7c15.4,10.7,22.6,26.9,22.2,45.3
		c-0.6,24-10.2,45.2-40.1,56.2c-26.8,9.8-53.6,7.1-79.8-3.2c-3.7-1.5-5-3.5-3.9-7.5c2.2-7.8,4-15.7,5.9-23.2
		c9.1,2.9,17.6,6.7,26.5,8c10.4,1.5,21.3,1.9,31.6,0.5c12-1.6,20.6-9,23.3-21.6c2.6-12.4-1.4-22.7-11.5-29.7
		c-7.9-5.5-16.6-9.8-25.3-13.9c-14.7-6.8-28.6-14.7-38.2-28.1c-20.6-28.5-9.7-67.8,23.1-82.6c25.4-11.5,51.1-9.5,76.6-0.2
		c1.3,0.5,2.9,3,2.6,4.2C695.7,339.5,693.3,348,691.1,356.4z"/>
	<path id="XMLID_247_" class="st0" d="M742.3,144.9c0.3-17.8,3.5-34.9,13.8-49.8c15.7-22.8,38.2-31.1,65-28.9
		c37,3.1,57.8,32.1,60.7,66.2c1.7,19.8-0.4,38.9-10.3,56.5c-13.4,23.8-40.8,36.5-68.1,33.3c-33.8-4-55.6-29-59.8-61.9
		C743,155.2,742.7,150,742.3,144.9z M844.8,144c0.2-12.5-1.7-24.6-7.8-35.6c-11.4-20.8-36.3-21.3-48.6-1c-5.5,9.2-7.6,19.5-8.4,30
		c-1.1,14.5,0.6,28.6,7.5,41.6c3.7,7.1,9.1,12.8,16.9,15.4c12.5,4.2,24.7-1.3,32.1-14.4C842.9,168.9,845.1,156.7,844.8,144z"/>
	<path id="XMLID_244_" class="st0" d="M980.3,145c0.3-18,3.6-35.2,14-50.2c15.7-22.5,38.1-30.8,64.7-28.6
		c37.5,3.1,57.9,32.5,60.8,66.1c1.7,20-0.4,39.3-10.5,57c-13.3,23.5-40.9,36.1-67.8,32.9c-34-4-55.7-29.1-59.9-61.8
		C981,155.3,980.7,150.1,980.3,145z M1082.8,143.9c0.3-12.2-1.7-23.9-7.3-34.7c-3.8-7.3-9.1-13.1-17.4-15.5
		c-13.2-3.8-26,1.7-32.6,15.6c-10.9,23.2-10.9,47,0.3,70.2c3.4,7.1,9,12.4,16.7,15c12.3,4.1,24.4-1.2,31.8-14.1
		C1080.9,169.1,1083.1,156.8,1082.8,143.9z"/>
	<path id="XMLID_243_" class="st0" d="M622.6,219.3c-12.6,0-24.4,0-37,0c0-50.1,0-100,0-150.2c9.7,0,20,0,30.8,0
		c0.6,6.5,1.3,13.2,2.1,21.4c1.7-2.3,2.6-3.5,3.5-4.7c18.5-24.4,56.6-27.2,76.4-5.5c9.6,10.4,13.8,23.4,14.1,37
		c0.6,33.3,0.3,66.6,0.3,99.9c0,0.5-0.2,1-0.3,1.8c-11.7,0-23.4,0-35.8,0c0-2,0-4,0-5.9c0-27.5,0.1-55-0.1-82.5
		c0-5.1-0.7-10.3-1.9-15.3c-2.5-10.6-8.6-18.1-19.9-19.6c-11-1.4-19.9,2.8-26.2,12c-4.1,6-6,12.8-6,20.3c0.1,28.5,0,57,0,85.5
		C622.6,215.4,622.6,217.2,622.6,219.3z"/>
	<path id="XMLID_242_" class="st2" d="M1122.7,400.2c4.2-3.4,8.6-6.9,13-10.4c19.7-15.8,51-16,67.8,3.6c7.4,8.6,11.2,18.8,12.7,29.9
		c0.7,5.4,1,10.9,1,16.4c0.1,28.6,0,57.3,0.1,85.9c0,4.4-1.2,5.8-5.7,5.7c-8.1-0.3-16.3-0.3-24.5,0c-3.9,0.1-5.2-1.2-5.2-5.2
		c0.1-28,0.2-56,0-83.9c0-5.1-0.8-10.3-2-15.2c-2.5-10.4-8.5-17.8-19.6-19.4c-11.4-1.7-20.7,2.4-27.2,11.9c-3.9,5.7-6,12.1-6,19.2
		c0.1,29,0,58,0.1,86.9c0,4.3-1.1,5.9-5.6,5.8c-8.3-0.3-16.7-0.3-25,0c-4.4,0.2-5.7-1.3-5.7-5.7c0.1-41.3,0.1-82.6,0-123.9
		c0-5.5-0.6-10.9-0.9-16.4c-0.2-3,1-4.2,4-4.2c7.7,0.1,15.3,0.1,23,0c3,0,4,1.2,4.2,4.1C1121.6,390.8,1122.3,396.3,1122.7,400.2z"/>
	<path id="XMLID_241_" class="st0" d="M1317.6,286.5c-3-10.1-6-20-8.9-29.6c6.9-4.1,13.8-7.7,20.2-12.2c8.7-6.1,15.1-14.4,20-23.9
		c2.3-4.5,2.5-8.8,0.8-13.4c-13.1-35.4-26.1-70.8-39.2-106.2c-3.9-10.6-7.8-21.1-11.9-32.2c13.6,0,26.6,0,40,0
		c10.7,36.1,21.4,72.4,32.4,109.7c1.3-4.8,2.4-8.8,3.5-12.8c8.1-31.2,16.2-62.4,24.2-93.6c0.6-2.4,1.4-3.7,4.2-3.7
		c11.3,0.1,22.6,0.1,34.7,0.1c-1.3,4-2.4,7.7-3.7,11.3c-14,40.8-27.8,81.8-42.3,122.5c-7,19.8-15.7,38.9-29.1,55.5
		c-11.2,13.8-25,23.8-42.5,28.2C1319.4,286.4,1318.8,286.4,1317.6,286.5z"/>
	<path id="XMLID_238_" class="st0" d="M171.1,153.5c-0.5,23.7,13.7,37,31.2,40.1c14.6,2.6,28.8,0.6,42.9-3.4c1.9-0.5,3.7-1.1,6-1.8
		c1.8,8.5,3.4,16.6,5.2,24.9c-9.1,4.4-18.6,6.4-28.3,7.8c-13.4,1.9-26.9,2.4-40.2-0.7c-23.6-5.5-40-19.5-47.3-42.7
		c-8.8-28-7.3-55.6,8.1-81.3c16.1-26.8,49.2-37.8,78.4-26.6c15.6,6,25.3,17.9,31.2,33.1c5.9,15.2,6.4,31.1,5.3,47.2
		c-0.3,3.8-2.7,3.4-5.3,3.4c-27.1,0-54.3,0-81.4,0C174.9,153.5,173,153.5,171.1,153.5z M169.2,127.4c21.5,0,40.9,0,60.9,0
		c-0.6-4.5-0.7-8.7-1.6-12.6c-2.7-11.4-8.6-20.3-20.9-22.9c-11.8-2.5-23,2.1-29.4,13.2C174.4,111.7,172.4,119.3,169.2,127.4z"/>
	<path id="XMLID_235_" class="st2" d="M1408.6,465.2c-0.9,21.5,11.6,37.2,30.3,40.8c15,2.9,29.8,1,44.3-3.2c1.3-0.4,2.5-0.8,3.8-1.2
		c0.3-0.1,0.6,0,1.7,0.1c1.4,6.8,3.1,13.9,4.2,21c0.2,1.1-1.9,3.5-3.3,3.9c-8.5,2.3-16.9,4.8-25.6,6.2c-12.7,2-25.5,2-38.1-1
		c-26.2-6.2-42.5-22.7-48.8-48.6c-6.4-26.2-4.1-51.6,10.3-75c10.7-17.3,26.4-27.1,46.8-29.4c40.5-4.5,61.1,22,65.8,52.8
		c1.4,8.8,1,17.9,1.1,26.9c0.1,6.2-0.4,6.6-6.5,6.6c-26.6,0-53.3,0-79.9,0C1412.8,465.2,1410.9,465.2,1408.6,465.2z M1467.9,439.8
		c0.8-8.4-0.8-15.8-4.3-22.7c-3.6-7-9.2-11.8-17-13.6c-19.7-4.5-40.6,15.5-37.7,36.3C1428.4,439.8,1447.9,439.8,1467.9,439.8z"/>
	<path id="XMLID_232_" class="st2" d="M969,465.2c-2.1,18.2,9.2,34,23.4,38.8c16.2,5.6,32.4,3.4,48.6-0.6c2.4-0.6,4.7-1.3,7.8-2.2
		c1.6,7.4,3.2,14.5,4.3,21.6c0.2,1.1-1.9,3.5-3.4,3.9c-8.5,2.3-16.9,4.8-25.6,6.2c-12.7,2-25.5,2-38.1-1
		c-26.2-6.2-42.5-22.7-48.8-48.6c-6.4-26.5-4.1-52.3,10.8-75.8c10.6-16.7,26-26.2,45.8-28.5c40.9-4.7,60.5,21.7,65.3,48.5
		c1.9,10.9,1.5,22.1,2.1,33.2c0.2,4.3-2.7,4.6-6,4.5c-26.8-0.1-53.6,0-80.4,0C972.8,465.2,970.8,465.2,969,465.2z M1027.9,439.8
		c0.8-8.7-0.9-16.4-4.8-23.5c-3.6-6.6-9.1-11-16.5-12.7c-19.7-4.5-40.6,15.4-37.7,36.3C988.4,439.8,1007.9,439.8,1027.9,439.8z"/>
	<path id="XMLID_231_" class="st0" d="M142.6,10.1c0,10.5,0,20.6,0,31.3c-17.6,0-35,0-52.8,0c0,59.5,0,118.4,0,177.7
		c-12.4,0-24.4,0-36.8,0c0-59,0-117.9,0-177.4c-17.8,0-35.2,0-52.9,0c0-10.8,0-21,0-31.6C47.3,10.1,94.7,10.1,142.6,10.1z"/>
	<path id="XMLID_230_" d="M859.4,874.5c-15,0-29.6,0-44.5,0c0-73.2,0-146.2,0-219.5c14.7,0,29.5,0,44.5,0
		C859.4,728,859.4,801,859.4,874.5z"/>
	<path id="XMLID_229_" class="st1" d="M380.5,504.2c0,8.3,0.1,16.4-0.1,24.5c0,1-1.5,2.6-2.6,2.8c-13.9,3.1-27.9,4.7-41.6-0.7
		c-13.9-5.5-20.3-16.9-22-30.9c-1.3-10.4-1.1-20.9-1.2-31.4c-0.2-18.5-0.2-37,0.1-55.5c0.1-4.7-1.4-6.1-6-5.8
		c-4.8,0.4-9.6,0.1-14.7,0.1c0-8.9,0-17.3,0-26.4c5.4,0,10.9-0.2,16.3,0.1c3.2,0.1,4.4-1,4.3-4.3c-0.2-6.7-0.2-13.3,0.1-20
		c0.1-1.5,1.1-3.8,2.2-4.2c10.5-3.4,21.1-6.6,32.7-10c0,13.2,0,25.6,0,38.3c11.7,0,22.7,0,34.1,0c0,8.9,0,17.4,0,26.6
		c-9.5,0-18.9,0.2-28.3-0.1c-4.6-0.2-6,1.3-6,5.9c0.2,21.3-0.1,42.7,0.2,64c0.1,5.4,0.9,11,2.3,16.2c2,7.4,7.4,11.3,15.1,11.5
		C369.7,505,374.2,504.5,380.5,504.2z"/>
	<path id="XMLID_228_" class="st1" d="M406.9,499.7c8.9,2.7,17.1,6,25.6,7.5c6.4,1.1,13.3,0.6,19.7-0.5c6.7-1.1,11.2-5.8,12.4-12.7
		c1.2-6.9-0.9-13.1-6.8-17.1c-4.6-3.2-9.8-5.6-14.8-8.2c-7.1-3.9-14.7-7.1-21.4-11.6c-28.3-19-21.6-58.6,6.1-72.2
		c21.9-10.7,43.7-8.1,65.9,1.4c-2.5,8.6-4.8,16.8-7.3,25.5c-10.4-5.3-20.8-8.2-32.1-7.4c-11.9,0.8-20,11-15.6,21.1
		c1.5,3.5,4.9,6.8,8.2,9c4.5,3,9.7,5,14.7,7.4c4.8,2.3,9.7,4.5,14.3,7.1c16.4,9.5,25.2,23.7,23.4,42.9
		c-1.9,20.8-14.2,33.6-33.8,39.2c-20.5,5.9-40.7,4-60.5-3.9c-3.9-1.5-4.7-3.6-3.5-7.6C403.6,512.8,405.2,505.9,406.9,499.7z"/>
	<path id="XMLID_227_" class="st2" d="M1529.1,500.1c8.7,2.6,16.6,5.9,24.8,7.3c6.6,1.1,13.6,0.6,20.3-0.5c6.7-1,11.4-5.6,12.6-12.5
		c1.3-7.2-0.5-13.8-6.9-18c-4.7-3.1-9.9-5.4-14.8-8.1c-7.7-4.2-15.9-7.9-23-13c-24.7-17.7-19.8-52.8,3.4-67.6
		c12.7-8.1,26.7-11,41.5-8.6c8.3,1.3,16.4,3.9,24.5,6c2.7,0.7,3.5,2.4,2.6,5.3c-2.2,6.8-4,13.6-6.1,20.7c-3.8-1.5-6.9-3.4-10.2-3.9
		c-7.8-1.3-15.7-2.7-23.6-2.6c-7.1,0.1-12.4,4.3-14.5,11.7c-1.8,6.3-0.1,12.4,6,16.6c5.3,3.6,11.4,6.1,17.1,9.2
		c7.8,4.4,16.2,8.1,23.1,13.6c23.1,18.2,19,57.7-8.7,71.1c-13.3,6.5-27.5,9-42.2,6.7c-9-1.4-17.8-3.9-26.6-6
		c-4.7-1.1-6.5-3.7-4.7-8.8C1526.1,512.4,1527.6,506,1529.1,500.1z"/>
	<path id="XMLID_226_" class="st0" d="M396.4,71.9c-2.1,9.4-4.1,18.3-5.9,26.5c-7.7-1.3-15.1-3.4-22.6-3.6
		c-22.8-0.8-37.7,10.8-43.3,33.2c-3.4,13.4-2.9,26.8,2.2,39.7c7.3,18.4,25.3,28.6,44.9,25.6c6.2-1,12.3-2.6,19.2-4
		c1.5,8.5,3,17.3,4.6,26.5c-9.5,4.3-19.5,5.8-29.6,6.6c-16.1,1.3-31.6-0.9-45.9-8.9c-12.4-6.9-21.6-16.9-26.9-29.9
		c-10.9-27-11-54,2.7-80c11.7-22.3,31.4-33.6,56.1-36.9c13.1-1.8,25.9-0.6,38.5,3.1C392.2,70.2,394,71,396.4,71.9z"/>
	<path id="XMLID_225_" class="st2" d="M836.1,409.4c-8.2-1.1-15.7-2.6-23.2-3.1c-23.5-1.6-38.3,14.5-42.7,32.8
		c-3.3,13.8-3.2,27.4,2,40.7c8,20.4,26.9,28.6,46.7,25.8c5.6-0.8,11-2.3,17.2-3.7c0.3,1.3,0.8,2.9,1.2,4.6c1,5.2,1.9,10.4,2.9,15.7
		c0.7,3.8,0,6.1-4.4,7.2c-13.4,3.4-26.8,5.7-40.8,4.1c-12.9-1.5-24.7-5.1-35.1-12.8c-15-11.1-22.9-26.4-26.1-44.5
		c-3.7-21.1-2-41.5,8.5-60.5c12.4-22.4,32.2-33.6,57.2-36.7c12.5-1.6,24.5,0.1,36.5,3.1c4.3,1.1,6.2,2.8,4.7,7.7
		C838.6,396.4,837.4,403.3,836.1,409.4z"/>
	<path id="XMLID_224_" class="st2" d="M1353.1,409.4c-8.4-1.1-15.8-2.6-23.4-3.1c-23.3-1.6-38.3,14.4-42.5,33
		c-4,17.6-3.5,34.9,7.4,50.2c10.1,14.2,24.8,18.2,41.4,16.1c5.6-0.7,11-2.3,17.4-3.7c0.7,4,1.5,8.3,2.2,12.6
		c2.3,14.7,5.7,12.9-11.1,16.9c-16.3,3.8-32.6,4-48.7-1.1c-19.1-6.1-32.9-18.4-40.1-37c-10.1-26-9.9-52.2,3.4-77.2
		c12.1-22.9,32.2-34,57.5-37.1c12.5-1.6,24.5,0.2,36.5,3.2c4.4,1.1,6,3,4.5,7.8C1355.6,396.4,1354.5,403.1,1353.1,409.4z"/>
	<path id="XMLID_223_" class="st0" d="M913.1,0c12,0,23.8,0,36,0c0,73,0,145.9,0,219.2c-11.9,0-23.8,0-36,0
		C913.1,146.3,913.1,73.4,913.1,0z"/>
	<path id="XMLID_222_" class="st1" d="M195.8,381c8.9,0,18,0,27.1,0c3.5,0,3.3,2.7,3.4,4.9c0.4,6.3,0.7,12.6,1.1,18.9
		c0.1,0.9,0.3,1.8,1,3.2c9.4-19.9,23.1-32.2,46.7-29.4c0,11.8,0,22.9,0,34.2c-5,0-10-0.7-14.8,0.1c-16.4,2.9-27.8,16.7-27.9,33.5
		c-0.2,26.2-0.1,52.3-0.1,78.5c0,2,0,3.9,0,6.1c-12.2,0-24,0-36.6,0C195.8,481.2,195.8,431.5,195.8,381z"/>
	<path id="XMLID_221_" class="st2" d="M867.2,456.1c0-23.1,0.1-46.3-0.1-69.4c0-4.4,1.3-5.8,5.7-5.6c8.5,0.3,17,0.2,25.5,0
		c3.5-0.1,5.1,0.9,5.1,4.7c-0.1,46.9-0.1,93.9,0,140.8c0,3.5-1.2,4.7-4.7,4.6c-8.8-0.2-17.6-0.2-26.5,0c-4.1,0.1-5.1-1.5-5.1-5.3
		C867.2,502.7,867.2,479.4,867.2,456.1z"/>
	<path id="XMLID_220_" d="M651.6,678.8c0.1-11.9,9.3-20.8,21.4-20.8c11.7,0,20.4,9.2,20.3,21.3c-0.1,12.4-8.9,21.5-20.7,21.4
		C660.5,700.5,651.5,691.2,651.6,678.8z"/>
	<path id="XMLID_219_" d="M714.5,679.4c0-12.4,8.6-21.2,20.7-21.3c11.7-0.1,20.5,8.9,20.5,21c0,12.4-8.7,21.6-20.5,21.6
		C723.1,700.7,714.5,691.8,714.5,679.4z"/>
	<path id="XMLID_218_" class="st2" d="M884.9,357.2c-9.9,0.5-19.1-6.2-19.4-19.5c-0.3-11.1,9.2-19.8,20.3-19.6
		c11,0.2,19.6,9,19.5,19.8C905.1,349.4,896.7,357.3,884.9,357.2z"/>
	<path id="XMLID_217_" class="st3" d="M1240.3,142.2c-0.5,8.1-0.3,16.4-1.6,24.3c-2.1,13.1-11.7,22.4-23.4,24.1
		c-12.4,1.8-24.4-3.9-30.1-16c-10.2-21.8-10-43.9,1.4-65.1c6.5-12.1,19.1-17.2,31.2-14.2c12.2,3,21.3,14.6,21.9,27.9
		c0.3,6.3,0,12.7,0,19C1239.9,142.2,1240.1,142.2,1240.3,142.2z"/>
</g>
<g id="XMLID_41_">
</g>
<g id="XMLID_42_">
</g>
<g id="XMLID_43_">
</g>
<g id="XMLID_44_">
</g>
<g id="XMLID_45_">
</g>
<g id="XMLID_46_">
</g>
</svg>
